solid CATIA STL
  facet normal  0.000000e+000  0.000000e+000  1.000000e+000
    outer loop
      vertex  1.155000e+002 -7.000000e+001  4.000000e+000
      vertex  1.125000e+002  9.550000e+001  4.000000e+000
      vertex  1.120607e+002  9.443934e+001  4.000000e+000
    endloop
  endfacet
  facet normal  0.000000e+000  0.000000e+000  9.999999e-001
    outer loop
      vertex  1.155000e+002 -7.000000e+001  4.000000e+000
      vertex  1.120607e+002  9.443934e+001  4.000000e+000
      vertex  1.110000e+002  9.400000e+001  4.000000e+000
    endloop
  endfacet
  facet normal  0.000000e+000  0.000000e+000  1.000000e+000
    outer loop
      vertex  1.155000e+002 -7.000000e+001  4.000000e+000
      vertex  1.110000e+002  9.400000e+001  4.000000e+000
      vertex -5.000000e+001  9.400000e+001  4.000000e+000
    endloop
  endfacet
  facet normal  0.000000e+000  0.000000e+000  9.999999e-001
    outer loop
      vertex  1.155000e+002 -7.000000e+001  4.000000e+000
      vertex -5.000000e+001  9.400000e+001  4.000000e+000
      vertex -5.450000e+001 -7.000000e+001  4.000000e+000
    endloop
  endfacet
  facet normal  0.000000e+000  0.000000e+000  9.999999e-001
    outer loop
      vertex -5.450000e+001 -7.000000e+001  4.000000e+000
      vertex -5.000000e+001  9.400000e+001  4.000000e+000
      vertex -5.106066e+001  9.443934e+001  4.000000e+000
    endloop
  endfacet
  facet normal  0.000000e+000  0.000000e+000  1.000000e+000
    outer loop
      vertex -5.450000e+001 -7.000000e+001  4.000000e+000
      vertex -5.106066e+001  9.443934e+001  4.000000e+000
      vertex -5.150000e+001  9.550000e+001  4.000000e+000
    endloop
  endfacet
  facet normal  0.000000e+000  0.000000e+000  1.000000e+000
    outer loop
      vertex -5.450000e+001 -7.000000e+001  4.000000e+000
      vertex -5.150000e+001  9.550000e+001  4.000000e+000
      vertex -5.450000e+001  1.000000e+002  4.000000e+000
    endloop
  endfacet
  facet normal  0.000000e+000  -0.000000e+000  1.000000e+000
    outer loop
      vertex -5.450000e+001  1.000000e+002  4.000000e+000
      vertex -5.150000e+001  9.550000e+001  4.000000e+000
      vertex -5.106066e+001  9.656066e+001  4.000000e+000
    endloop
  endfacet
  facet normal  0.000000e+000  -0.000000e+000  1.000000e+000
    outer loop
      vertex -5.450000e+001  1.000000e+002  4.000000e+000
      vertex -5.106066e+001  9.656066e+001  4.000000e+000
      vertex -5.000000e+001  9.700000e+001  4.000000e+000
    endloop
  endfacet
  facet normal  0.000000e+000  -0.000000e+000  1.000000e+000
    outer loop
      vertex -5.450000e+001  1.000000e+002  4.000000e+000
      vertex -5.000000e+001  9.700000e+001  4.000000e+000
      vertex  1.110000e+002  9.700000e+001  4.000000e+000
    endloop
  endfacet
  facet normal  0.000000e+000  -0.000000e+000  1.000000e+000
    outer loop
      vertex -5.450000e+001  1.000000e+002  4.000000e+000
      vertex  1.110000e+002  9.700000e+001  4.000000e+000
      vertex  1.155000e+002  1.000000e+002  4.000000e+000
    endloop
  endfacet
  facet normal  -0.000000e+000  0.000000e+000  1.000000e+000
    outer loop
      vertex  1.155000e+002  1.000000e+002  4.000000e+000
      vertex  1.110000e+002  9.700000e+001  4.000000e+000
      vertex  1.120607e+002  9.656066e+001  4.000000e+000
    endloop
  endfacet
  facet normal  -0.000000e+000  0.000000e+000  1.000000e+000
    outer loop
      vertex  1.155000e+002  1.000000e+002  4.000000e+000
      vertex  1.120607e+002  9.656066e+001  4.000000e+000
      vertex  1.125000e+002  9.550000e+001  4.000000e+000
    endloop
  endfacet
  facet normal  -0.000000e+000  0.000000e+000  1.000000e+000
    outer loop
      vertex  1.155000e+002  1.000000e+002  4.000000e+000
      vertex  1.125000e+002  9.550000e+001  4.000000e+000
      vertex  1.155000e+002 -7.000000e+001  4.000000e+000
    endloop
  endfacet
  facet normal  -0.000000e+000  0.000000e+000  1.000000e+000
    outer loop
      vertex  1.110000e+002  9.700000e+001  4.000000e+000
      vertex -5.000000e+001  9.700000e+001  4.000000e+000
      vertex  1.099393e+002  9.656066e+001  4.000000e+000
    endloop
  endfacet
  facet normal  0.000000e+000  0.000000e+000  1.000000e+000
    outer loop
      vertex  1.099393e+002  9.656066e+001  4.000000e+000
      vertex -5.000000e+001  9.700000e+001  4.000000e+000
      vertex -4.893934e+001  9.656066e+001  4.000000e+000
    endloop
  endfacet
  facet normal  -0.000000e+000  0.000000e+000  1.000000e+000
    outer loop
      vertex  1.099393e+002  9.656066e+001  4.000000e+000
      vertex -4.893934e+001  9.656066e+001  4.000000e+000
      vertex  1.095000e+002  9.550000e+001  4.000000e+000
    endloop
  endfacet
  facet normal  0.000000e+000  0.000000e+000  1.000000e+000
    outer loop
      vertex  1.095000e+002  9.550000e+001  4.000000e+000
      vertex -4.893934e+001  9.656066e+001  4.000000e+000
      vertex -4.850000e+001  9.550000e+001  4.000000e+000
    endloop
  endfacet
  facet normal  -0.000000e+000  0.000000e+000  1.000000e+000
    outer loop
      vertex  1.095000e+002  9.550000e+001  4.000000e+000
      vertex -4.850000e+001  9.550000e+001  4.000000e+000
      vertex  1.099393e+002  9.443934e+001  4.000000e+000
    endloop
  endfacet
  facet normal  0.000000e+000  0.000000e+000  1.000000e+000
    outer loop
      vertex  1.099393e+002  9.443934e+001  4.000000e+000
      vertex -4.850000e+001  9.550000e+001  4.000000e+000
      vertex -4.893934e+001  9.443934e+001  4.000000e+000
    endloop
  endfacet
  facet normal  -0.000000e+000  0.000000e+000  1.000000e+000
    outer loop
      vertex  1.099393e+002  9.443934e+001  4.000000e+000
      vertex -4.893934e+001  9.443934e+001  4.000000e+000
      vertex  1.110000e+002  9.400000e+001  4.000000e+000
    endloop
  endfacet
  facet normal  0.000000e+000  0.000000e+000  1.000000e+000
    outer loop
      vertex  1.110000e+002  9.400000e+001  4.000000e+000
      vertex -4.893934e+001  9.443934e+001  4.000000e+000
      vertex -5.000000e+001  9.400000e+001  4.000000e+000
    endloop
  endfacet
  facet normal  0.000000e+000  0.000000e+000 -9.999999e-001
    outer loop
      vertex  1.155000e+002 -7.000000e+001  0.000000e+000
      vertex -5.450000e+001 -7.000000e+001  0.000000e+000
      vertex -5.000000e+001  9.400000e+001  0.000000e+000
    endloop
  endfacet
  facet normal  0.000000e+000  0.000000e+000 -1.000000e+000
    outer loop
      vertex  1.155000e+002 -7.000000e+001  0.000000e+000
      vertex -5.000000e+001  9.400000e+001  0.000000e+000
      vertex  1.110000e+002  9.400000e+001  0.000000e+000
    endloop
  endfacet
  facet normal  0.000000e+000  0.000000e+000 -9.999999e-001
    outer loop
      vertex  1.155000e+002 -7.000000e+001  0.000000e+000
      vertex  1.110000e+002  9.400000e+001  0.000000e+000
      vertex  1.120607e+002  9.443934e+001  0.000000e+000
    endloop
  endfacet
  facet normal  0.000000e+000  0.000000e+000 -1.000000e+000
    outer loop
      vertex  1.155000e+002 -7.000000e+001  0.000000e+000
      vertex  1.120607e+002  9.443934e+001  0.000000e+000
      vertex  1.125000e+002  9.550000e+001  0.000000e+000
    endloop
  endfacet
  facet normal  0.000000e+000  0.000000e+000 -1.000000e+000
    outer loop
      vertex -5.450000e+001 -7.000000e+001  0.000000e+000
      vertex -5.450000e+001  1.000000e+002  0.000000e+000
      vertex -5.150000e+001  9.550000e+001  0.000000e+000
    endloop
  endfacet
  facet normal  0.000000e+000  -0.000000e+000 -1.000000e+000
    outer loop
      vertex -5.450000e+001 -7.000000e+001  0.000000e+000
      vertex -5.150000e+001  9.550000e+001  0.000000e+000
      vertex -5.106066e+001  9.443934e+001  0.000000e+000
    endloop
  endfacet
  facet normal  0.000000e+000  -0.000000e+000 -9.999999e-001
    outer loop
      vertex -5.450000e+001 -7.000000e+001  0.000000e+000
      vertex -5.106066e+001  9.443934e+001  0.000000e+000
      vertex -5.000000e+001  9.400000e+001  0.000000e+000
    endloop
  endfacet
  facet normal  -0.000000e+000  0.000000e+000 -1.000000e+000
    outer loop
      vertex -5.450000e+001  1.000000e+002  0.000000e+000
      vertex  1.155000e+002  1.000000e+002  0.000000e+000
      vertex  1.110000e+002  9.700000e+001  0.000000e+000
    endloop
  endfacet
  facet normal  0.000000e+000  0.000000e+000 -1.000000e+000
    outer loop
      vertex -5.450000e+001  1.000000e+002  0.000000e+000
      vertex  1.110000e+002  9.700000e+001  0.000000e+000
      vertex -5.000000e+001  9.700000e+001  0.000000e+000
    endloop
  endfacet
  facet normal  -0.000000e+000  0.000000e+000 -1.000000e+000
    outer loop
      vertex -5.450000e+001  1.000000e+002  0.000000e+000
      vertex -5.000000e+001  9.700000e+001  0.000000e+000
      vertex -5.106066e+001  9.656066e+001  0.000000e+000
    endloop
  endfacet
  facet normal  -0.000000e+000  0.000000e+000 -1.000000e+000
    outer loop
      vertex -5.450000e+001  1.000000e+002  0.000000e+000
      vertex -5.106066e+001  9.656066e+001  0.000000e+000
      vertex -5.150000e+001  9.550000e+001  0.000000e+000
    endloop
  endfacet
  facet normal  0.000000e+000  0.000000e+000 -1.000000e+000
    outer loop
      vertex  1.155000e+002  1.000000e+002  0.000000e+000
      vertex  1.155000e+002 -7.000000e+001  0.000000e+000
      vertex  1.125000e+002  9.550000e+001  0.000000e+000
    endloop
  endfacet
  facet normal  0.000000e+000  0.000000e+000 -1.000000e+000
    outer loop
      vertex  1.155000e+002  1.000000e+002  0.000000e+000
      vertex  1.125000e+002  9.550000e+001  0.000000e+000
      vertex  1.120607e+002  9.656066e+001  0.000000e+000
    endloop
  endfacet
  facet normal  0.000000e+000  0.000000e+000 -1.000000e+000
    outer loop
      vertex  1.155000e+002  1.000000e+002  0.000000e+000
      vertex  1.120607e+002  9.656066e+001  0.000000e+000
      vertex  1.110000e+002  9.700000e+001  0.000000e+000
    endloop
  endfacet
  facet normal  0.000000e+000  0.000000e+000 -1.000000e+000
    outer loop
      vertex  1.095000e+002  9.550000e+001  0.000000e+000
      vertex -4.893934e+001  9.656066e+001  0.000000e+000
      vertex  1.099393e+002  9.656066e+001  0.000000e+000
    endloop
  endfacet
  facet normal  0.000000e+000  0.000000e+000 -1.000000e+000
    outer loop
      vertex  1.099393e+002  9.656066e+001  0.000000e+000
      vertex -4.893934e+001  9.656066e+001  0.000000e+000
      vertex -5.000000e+001  9.700000e+001  0.000000e+000
    endloop
  endfacet
  facet normal  0.000000e+000  0.000000e+000 -1.000000e+000
    outer loop
      vertex  1.099393e+002  9.656066e+001  0.000000e+000
      vertex -5.000000e+001  9.700000e+001  0.000000e+000
      vertex  1.110000e+002  9.700000e+001  0.000000e+000
    endloop
  endfacet
  facet normal  0.000000e+000  0.000000e+000 -1.000000e+000
    outer loop
      vertex -4.893934e+001  9.656066e+001  0.000000e+000
      vertex  1.095000e+002  9.550000e+001  0.000000e+000
      vertex -4.850000e+001  9.550000e+001  0.000000e+000
    endloop
  endfacet
  facet normal  0.000000e+000  0.000000e+000 -1.000000e+000
    outer loop
      vertex -4.850000e+001  9.550000e+001  0.000000e+000
      vertex  1.095000e+002  9.550000e+001  0.000000e+000
      vertex  1.099393e+002  9.443934e+001  0.000000e+000
    endloop
  endfacet
  facet normal  0.000000e+000  0.000000e+000 -1.000000e+000
    outer loop
      vertex -4.850000e+001  9.550000e+001  0.000000e+000
      vertex  1.099393e+002  9.443934e+001  0.000000e+000
      vertex -4.893934e+001  9.443934e+001  0.000000e+000
    endloop
  endfacet
  facet normal  0.000000e+000  0.000000e+000 -1.000000e+000
    outer loop
      vertex -4.893934e+001  9.443934e+001  0.000000e+000
      vertex  1.099393e+002  9.443934e+001  0.000000e+000
      vertex  1.110000e+002  9.400000e+001  0.000000e+000
    endloop
  endfacet
  facet normal  0.000000e+000  0.000000e+000 -1.000000e+000
    outer loop
      vertex -4.893934e+001  9.443934e+001  0.000000e+000
      vertex  1.110000e+002  9.400000e+001  0.000000e+000
      vertex -5.000000e+001  9.400000e+001  0.000000e+000
    endloop
  endfacet
  facet normal  3.826822e-001 -9.238800e-001  0.000000e+000
    outer loop
      vertex  1.110000e+002  9.700000e+001  0.000000e+000
      vertex  1.099393e+002  9.656066e+001  4.000000e+000
      vertex  1.099393e+002  9.656066e+001  0.000000e+000
    endloop
  endfacet
  facet normal  9.238800e-001 -3.826822e-001  0.000000e+000
    outer loop
      vertex  1.099393e+002  9.656066e+001  0.000000e+000
      vertex  1.099393e+002  9.656066e+001  4.000000e+000
      vertex  1.095000e+002  9.550000e+001  4.000000e+000
    endloop
  endfacet
  facet normal  9.238800e-001 -3.826822e-001  0.000000e+000
    outer loop
      vertex  1.099393e+002  9.656066e+001  0.000000e+000
      vertex  1.095000e+002  9.550000e+001  4.000000e+000
      vertex  1.095000e+002  9.550000e+001  0.000000e+000
    endloop
  endfacet
  facet normal  3.826822e-001 -9.238800e-001  0.000000e+000
    outer loop
      vertex  1.099393e+002  9.656066e+001  4.000000e+000
      vertex  1.110000e+002  9.700000e+001  0.000000e+000
      vertex  1.110000e+002  9.700000e+001  4.000000e+000
    endloop
  endfacet
  facet normal -3.826822e-001 -9.238800e-001  -0.000000e+000
    outer loop
      vertex  1.110000e+002  9.700000e+001  4.000000e+000
      vertex  1.110000e+002  9.700000e+001  0.000000e+000
      vertex  1.120607e+002  9.656066e+001  0.000000e+000
    endloop
  endfacet
  facet normal -3.826822e-001 -9.238800e-001  0.000000e+000
    outer loop
      vertex  1.110000e+002  9.700000e+001  4.000000e+000
      vertex  1.120607e+002  9.656066e+001  0.000000e+000
      vertex  1.120607e+002  9.656066e+001  4.000000e+000
    endloop
  endfacet
  facet normal -9.238800e-001 -3.826822e-001  -0.000000e+000
    outer loop
      vertex  1.120607e+002  9.656066e+001  4.000000e+000
      vertex  1.120607e+002  9.656066e+001  0.000000e+000
      vertex  1.125000e+002  9.550000e+001  0.000000e+000
    endloop
  endfacet
  facet normal -9.238800e-001 -3.826822e-001  0.000000e+000
    outer loop
      vertex  1.120607e+002  9.656066e+001  4.000000e+000
      vertex  1.125000e+002  9.550000e+001  0.000000e+000
      vertex  1.125000e+002  9.550000e+001  4.000000e+000
    endloop
  endfacet
  facet normal -3.826822e-001  9.238800e-001  0.000000e+000
    outer loop
      vertex  1.110000e+002  9.400000e+001  0.000000e+000
      vertex  1.120607e+002  9.443934e+001  4.000000e+000
      vertex  1.120607e+002  9.443934e+001  0.000000e+000
    endloop
  endfacet
  facet normal -9.238800e-001  3.826822e-001  0.000000e+000
    outer loop
      vertex  1.120607e+002  9.443934e+001  0.000000e+000
      vertex  1.120607e+002  9.443934e+001  4.000000e+000
      vertex  1.125000e+002  9.550000e+001  4.000000e+000
    endloop
  endfacet
  facet normal -9.238800e-001  3.826822e-001  0.000000e+000
    outer loop
      vertex  1.120607e+002  9.443934e+001  0.000000e+000
      vertex  1.125000e+002  9.550000e+001  4.000000e+000
      vertex  1.125000e+002  9.550000e+001  0.000000e+000
    endloop
  endfacet
  facet normal -3.826822e-001  9.238800e-001  0.000000e+000
    outer loop
      vertex  1.120607e+002  9.443934e+001  4.000000e+000
      vertex  1.110000e+002  9.400000e+001  0.000000e+000
      vertex  1.110000e+002  9.400000e+001  4.000000e+000
    endloop
  endfacet
  facet normal  3.826822e-001  9.238800e-001  0.000000e+000
    outer loop
      vertex  1.110000e+002  9.400000e+001  4.000000e+000
      vertex  1.110000e+002  9.400000e+001  0.000000e+000
      vertex  1.099393e+002  9.443934e+001  0.000000e+000
    endloop
  endfacet
  facet normal  3.826822e-001  9.238800e-001  -0.000000e+000
    outer loop
      vertex  1.110000e+002  9.400000e+001  4.000000e+000
      vertex  1.099393e+002  9.443934e+001  0.000000e+000
      vertex  1.099393e+002  9.443934e+001  4.000000e+000
    endloop
  endfacet
  facet normal  9.238800e-001  3.826822e-001  0.000000e+000
    outer loop
      vertex  1.099393e+002  9.443934e+001  4.000000e+000
      vertex  1.099393e+002  9.443934e+001  0.000000e+000
      vertex  1.095000e+002  9.550000e+001  0.000000e+000
    endloop
  endfacet
  facet normal  9.238800e-001  3.826822e-001  -0.000000e+000
    outer loop
      vertex  1.099393e+002  9.443934e+001  4.000000e+000
      vertex  1.095000e+002  9.550000e+001  0.000000e+000
      vertex  1.095000e+002  9.550000e+001  4.000000e+000
    endloop
  endfacet
  facet normal  3.826822e-001 -9.238800e-001  0.000000e+000
    outer loop
      vertex -5.000000e+001  9.700000e+001  0.000000e+000
      vertex -5.106066e+001  9.656066e+001  4.000000e+000
      vertex -5.106066e+001  9.656066e+001  0.000000e+000
    endloop
  endfacet
  facet normal  9.238800e-001 -3.826822e-001  0.000000e+000
    outer loop
      vertex -5.106066e+001  9.656066e+001  0.000000e+000
      vertex -5.106066e+001  9.656066e+001  4.000000e+000
      vertex -5.150000e+001  9.550000e+001  4.000000e+000
    endloop
  endfacet
  facet normal  9.238800e-001 -3.826822e-001  0.000000e+000
    outer loop
      vertex -5.106066e+001  9.656066e+001  0.000000e+000
      vertex -5.150000e+001  9.550000e+001  4.000000e+000
      vertex -5.150000e+001  9.550000e+001  0.000000e+000
    endloop
  endfacet
  facet normal  3.826822e-001 -9.238800e-001  0.000000e+000
    outer loop
      vertex -5.106066e+001  9.656066e+001  4.000000e+000
      vertex -5.000000e+001  9.700000e+001  0.000000e+000
      vertex -5.000000e+001  9.700000e+001  4.000000e+000
    endloop
  endfacet
  facet normal -3.826822e-001 -9.238800e-001  -0.000000e+000
    outer loop
      vertex -5.000000e+001  9.700000e+001  4.000000e+000
      vertex -5.000000e+001  9.700000e+001  0.000000e+000
      vertex -4.893934e+001  9.656066e+001  0.000000e+000
    endloop
  endfacet
  facet normal -3.826822e-001 -9.238800e-001  0.000000e+000
    outer loop
      vertex -5.000000e+001  9.700000e+001  4.000000e+000
      vertex -4.893934e+001  9.656066e+001  0.000000e+000
      vertex -4.893934e+001  9.656066e+001  4.000000e+000
    endloop
  endfacet
  facet normal -9.238800e-001 -3.826822e-001  -0.000000e+000
    outer loop
      vertex -4.893934e+001  9.656066e+001  4.000000e+000
      vertex -4.893934e+001  9.656066e+001  0.000000e+000
      vertex -4.850000e+001  9.550000e+001  0.000000e+000
    endloop
  endfacet
  facet normal -9.238800e-001 -3.826822e-001  0.000000e+000
    outer loop
      vertex -4.893934e+001  9.656066e+001  4.000000e+000
      vertex -4.850000e+001  9.550000e+001  0.000000e+000
      vertex -4.850000e+001  9.550000e+001  4.000000e+000
    endloop
  endfacet
  facet normal -3.826822e-001  9.238800e-001  0.000000e+000
    outer loop
      vertex -5.000000e+001  9.400000e+001  0.000000e+000
      vertex -4.893934e+001  9.443934e+001  4.000000e+000
      vertex -4.893934e+001  9.443934e+001  0.000000e+000
    endloop
  endfacet
  facet normal -9.238800e-001  3.826822e-001  0.000000e+000
    outer loop
      vertex -4.893934e+001  9.443934e+001  0.000000e+000
      vertex -4.893934e+001  9.443934e+001  4.000000e+000
      vertex -4.850000e+001  9.550000e+001  4.000000e+000
    endloop
  endfacet
  facet normal -9.238800e-001  3.826822e-001  0.000000e+000
    outer loop
      vertex -4.893934e+001  9.443934e+001  0.000000e+000
      vertex -4.850000e+001  9.550000e+001  4.000000e+000
      vertex -4.850000e+001  9.550000e+001  0.000000e+000
    endloop
  endfacet
  facet normal -3.826822e-001  9.238800e-001  0.000000e+000
    outer loop
      vertex -4.893934e+001  9.443934e+001  4.000000e+000
      vertex -5.000000e+001  9.400000e+001  0.000000e+000
      vertex -5.000000e+001  9.400000e+001  4.000000e+000
    endloop
  endfacet
  facet normal  3.826822e-001  9.238800e-001  0.000000e+000
    outer loop
      vertex -5.000000e+001  9.400000e+001  4.000000e+000
      vertex -5.000000e+001  9.400000e+001  0.000000e+000
      vertex -5.106066e+001  9.443934e+001  0.000000e+000
    endloop
  endfacet
  facet normal  3.826822e-001  9.238800e-001  -0.000000e+000
    outer loop
      vertex -5.000000e+001  9.400000e+001  4.000000e+000
      vertex -5.106066e+001  9.443934e+001  0.000000e+000
      vertex -5.106066e+001  9.443934e+001  4.000000e+000
    endloop
  endfacet
  facet normal  9.238800e-001  3.826822e-001  0.000000e+000
    outer loop
      vertex -5.106066e+001  9.443934e+001  4.000000e+000
      vertex -5.106066e+001  9.443934e+001  0.000000e+000
      vertex -5.150000e+001  9.550000e+001  0.000000e+000
    endloop
  endfacet
  facet normal  9.238800e-001  3.826822e-001  -0.000000e+000
    outer loop
      vertex -5.106066e+001  9.443934e+001  4.000000e+000
      vertex -5.150000e+001  9.550000e+001  0.000000e+000
      vertex -5.150000e+001  9.550000e+001  4.000000e+000
    endloop
  endfacet
  facet normal  0.000000e+000  1.000000e+000  0.000000e+000
    outer loop
      vertex -5.450000e+001  1.000000e+002  4.000000e+000
      vertex  1.155000e+002  1.000000e+002  4.000000e+000
      vertex -5.450000e+001  1.000000e+002  0.000000e+000
    endloop
  endfacet
  facet normal  0.000000e+000  1.000000e+000  0.000000e+000
    outer loop
      vertex -5.450000e+001  1.000000e+002  0.000000e+000
      vertex  1.155000e+002  1.000000e+002  4.000000e+000
      vertex  1.155000e+002  1.000000e+002  0.000000e+000
    endloop
  endfacet
  facet normal  1.000000e+000  0.000000e+000  0.000000e+000
    outer loop
      vertex  1.155000e+002 -7.000000e+001  4.000000e+000
      vertex  1.155000e+002 -7.000000e+001  0.000000e+000
      vertex  1.155000e+002  1.000000e+002  4.000000e+000
    endloop
  endfacet
  facet normal  1.000000e+000  0.000000e+000  0.000000e+000
    outer loop
      vertex  1.155000e+002  1.000000e+002  4.000000e+000
      vertex  1.155000e+002 -7.000000e+001  0.000000e+000
      vertex  1.155000e+002  1.000000e+002  0.000000e+000
    endloop
  endfacet
  facet normal  0.000000e+000 -1.000000e+000  0.000000e+000
    outer loop
      vertex  1.155000e+002 -7.000000e+001  4.000000e+000
      vertex -5.450000e+001 -7.000000e+001  4.000000e+000
      vertex  1.155000e+002 -7.000000e+001  0.000000e+000
    endloop
  endfacet
  facet normal  0.000000e+000 -1.000000e+000  0.000000e+000
    outer loop
      vertex  1.155000e+002 -7.000000e+001  0.000000e+000
      vertex -5.450000e+001 -7.000000e+001  4.000000e+000
      vertex -5.450000e+001 -7.000000e+001  0.000000e+000
    endloop
  endfacet
  facet normal -1.000000e+000  0.000000e+000  0.000000e+000
    outer loop
      vertex -5.450000e+001  1.000000e+002  4.000000e+000
      vertex -5.450000e+001  1.000000e+002  0.000000e+000
      vertex -5.450000e+001 -7.000000e+001  4.000000e+000
    endloop
  endfacet
  facet normal -1.000000e+000  0.000000e+000  0.000000e+000
    outer loop
      vertex -5.450000e+001 -7.000000e+001  4.000000e+000
      vertex -5.450000e+001  1.000000e+002  0.000000e+000
      vertex -5.450000e+001 -7.000000e+001  0.000000e+000
    endloop
  endfacet
endsolid CATIA STL
