solid CATIA STL
  facet normal  0.000000e+000  0.000000e+000  1.000000e+000
    outer loop
      vertex -6.000000e+001 -7.000000e+001  4.000000e+000
      vertex  1.100000e+002 -7.000000e+001  4.000000e+000
      vertex -6.000000e+001  1.000000e+002  4.000000e+000
    endloop
  endfacet
  facet normal  -0.000000e+000  0.000000e+000  1.000000e+000
    outer loop
      vertex -6.000000e+001  1.000000e+002  4.000000e+000
      vertex  1.100000e+002 -7.000000e+001  4.000000e+000
      vertex  1.100000e+002  1.000000e+002  4.000000e+000
    endloop
  endfacet
  facet normal  0.000000e+000  0.000000e+000 -1.000000e+000
    outer loop
      vertex -6.000000e+001 -7.000000e+001  0.000000e+000
      vertex -6.000000e+001  1.000000e+002  0.000000e+000
      vertex  1.100000e+002 -7.000000e+001  0.000000e+000
    endloop
  endfacet
  facet normal  0.000000e+000  0.000000e+000 -1.000000e+000
    outer loop
      vertex  1.100000e+002 -7.000000e+001  0.000000e+000
      vertex -6.000000e+001  1.000000e+002  0.000000e+000
      vertex  1.100000e+002  1.000000e+002  0.000000e+000
    endloop
  endfacet
  facet normal  0.000000e+000  1.000000e+000  0.000000e+000
    outer loop
      vertex -6.000000e+001  1.000000e+002  4.000000e+000
      vertex  1.100000e+002  1.000000e+002  4.000000e+000
      vertex -6.000000e+001  1.000000e+002  0.000000e+000
    endloop
  endfacet
  facet normal  0.000000e+000  1.000000e+000  0.000000e+000
    outer loop
      vertex -6.000000e+001  1.000000e+002  0.000000e+000
      vertex  1.100000e+002  1.000000e+002  4.000000e+000
      vertex  1.100000e+002  1.000000e+002  0.000000e+000
    endloop
  endfacet
  facet normal  1.000000e+000  0.000000e+000  0.000000e+000
    outer loop
      vertex  1.100000e+002 -7.000000e+001  4.000000e+000
      vertex  1.100000e+002 -7.000000e+001  0.000000e+000
      vertex  1.100000e+002  1.000000e+002  4.000000e+000
    endloop
  endfacet
  facet normal  1.000000e+000  0.000000e+000  0.000000e+000
    outer loop
      vertex  1.100000e+002  1.000000e+002  4.000000e+000
      vertex  1.100000e+002 -7.000000e+001  0.000000e+000
      vertex  1.100000e+002  1.000000e+002  0.000000e+000
    endloop
  endfacet
  facet normal  0.000000e+000 -1.000000e+000  0.000000e+000
    outer loop
      vertex  1.100000e+002 -7.000000e+001  4.000000e+000
      vertex -6.000000e+001 -7.000000e+001  4.000000e+000
      vertex  1.100000e+002 -7.000000e+001  0.000000e+000
    endloop
  endfacet
  facet normal  0.000000e+000 -1.000000e+000  0.000000e+000
    outer loop
      vertex  1.100000e+002 -7.000000e+001  0.000000e+000
      vertex -6.000000e+001 -7.000000e+001  4.000000e+000
      vertex -6.000000e+001 -7.000000e+001  0.000000e+000
    endloop
  endfacet
  facet normal -1.000000e+000  0.000000e+000  0.000000e+000
    outer loop
      vertex -6.000000e+001  1.000000e+002  4.000000e+000
      vertex -6.000000e+001  1.000000e+002  0.000000e+000
      vertex -6.000000e+001 -7.000000e+001  4.000000e+000
    endloop
  endfacet
  facet normal -1.000000e+000  0.000000e+000  0.000000e+000
    outer loop
      vertex -6.000000e+001 -7.000000e+001  4.000000e+000
      vertex -6.000000e+001  1.000000e+002  0.000000e+000
      vertex -6.000000e+001 -7.000000e+001  0.000000e+000
    endloop
  endfacet
endsolid CATIA STL
