solid CATIA STL
  facet normal  0.000000e+000  0.000000e+000  9.999999e-001
    outer loop
      vertex  0.000000e+000  0.000000e+000  4.000000e+000
      vertex  1.700000e+002  0.000000e+000  4.000000e+000
      vertex  0.000000e+000  2.000000e+001  4.000000e+000
    endloop
  endfacet
  facet normal  -0.000000e+000  0.000000e+000  9.999999e-001
    outer loop
      vertex  0.000000e+000  2.000000e+001  4.000000e+000
      vertex  1.700000e+002  0.000000e+000  4.000000e+000
      vertex  1.700000e+002  2.000000e+001  4.000000e+000
    endloop
  endfacet
  facet normal  0.000000e+000  0.000000e+000 -9.999999e-001
    outer loop
      vertex  0.000000e+000  0.000000e+000  0.000000e+000
      vertex  0.000000e+000  2.000000e+001  0.000000e+000
      vertex  1.700000e+002  0.000000e+000  0.000000e+000
    endloop
  endfacet
  facet normal  0.000000e+000  0.000000e+000 -9.999999e-001
    outer loop
      vertex  1.700000e+002  0.000000e+000  0.000000e+000
      vertex  0.000000e+000  2.000000e+001  0.000000e+000
      vertex  1.700000e+002  2.000000e+001  0.000000e+000
    endloop
  endfacet
  facet normal -1.000000e+000  0.000000e+000  0.000000e+000
    outer loop
      vertex  0.000000e+000  2.000000e+001  4.000000e+000
      vertex  0.000000e+000  2.000000e+001  0.000000e+000
      vertex  0.000000e+000  0.000000e+000  4.000000e+000
    endloop
  endfacet
  facet normal -1.000000e+000  0.000000e+000  0.000000e+000
    outer loop
      vertex  0.000000e+000  0.000000e+000  4.000000e+000
      vertex  0.000000e+000  2.000000e+001  0.000000e+000
      vertex  0.000000e+000  0.000000e+000  0.000000e+000
    endloop
  endfacet
  facet normal  0.000000e+000  1.000000e+000  -0.000000e+000
    outer loop
      vertex  1.700000e+002  2.000000e+001  4.000000e+000
      vertex  1.700000e+002  2.000000e+001  0.000000e+000
      vertex  0.000000e+000  2.000000e+001  4.000000e+000
    endloop
  endfacet
  facet normal  0.000000e+000  1.000000e+000  0.000000e+000
    outer loop
      vertex  0.000000e+000  2.000000e+001  4.000000e+000
      vertex  1.700000e+002  2.000000e+001  0.000000e+000
      vertex  0.000000e+000  2.000000e+001  0.000000e+000
    endloop
  endfacet
  facet normal  1.000000e+000  0.000000e+000  0.000000e+000
    outer loop
      vertex  1.700000e+002  0.000000e+000  4.000000e+000
      vertex  1.700000e+002  0.000000e+000  0.000000e+000
      vertex  1.700000e+002  2.000000e+001  4.000000e+000
    endloop
  endfacet
  facet normal  1.000000e+000  0.000000e+000  0.000000e+000
    outer loop
      vertex  1.700000e+002  2.000000e+001  4.000000e+000
      vertex  1.700000e+002  0.000000e+000  0.000000e+000
      vertex  1.700000e+002  2.000000e+001  0.000000e+000
    endloop
  endfacet
  facet normal  0.000000e+000 -1.000000e+000  0.000000e+000
    outer loop
      vertex  0.000000e+000  0.000000e+000  4.000000e+000
      vertex  0.000000e+000  0.000000e+000  0.000000e+000
      vertex  1.700000e+002  0.000000e+000  4.000000e+000
    endloop
  endfacet
  facet normal  0.000000e+000 -1.000000e+000  -0.000000e+000
    outer loop
      vertex  1.700000e+002  0.000000e+000  4.000000e+000
      vertex  0.000000e+000  0.000000e+000  0.000000e+000
      vertex  1.700000e+002  0.000000e+000  0.000000e+000
    endloop
  endfacet
endsolid CATIA STL
